<?xml version="1.0" standalone="no"?>
<!DOCTYPE svg PUBLIC "-//W3C//DTD SVG 20010904//EN"
 "http://www.w3.org/TR/2001/REC-SVG-20010904/DTD/svg10.dtd">
<svg version="1.0" xmlns="http://www.w3.org/2000/svg"
 width="538.000000pt" height="538.000000pt" viewBox="0 0 538.000000 538.000000"
 preserveAspectRatio="xMidYMid meet">
<metadata>
Created by potrace 1.11, written by Peter Selinger 2001-2013
</metadata>
<g transform="translate(0.000000,538.000000) scale(0.100000,-0.100000)"
fill="#000000" stroke="none">
<path d="M0 2690 l0 -2690 2690 0 2690 0 0 2690 0 2690 -2690 0 -2690 0 0
-2690z m4735 1780 c22 -8 65 -39 96 -70 97 -96 89 33 89 -1471 0 -1426 3
-1352 -53 -1434 -28 -41 -85 -85 -137 -106 -28 -11 -169 -15 -745 -19 l-710
-5 3 -44 c4 -68 38 -135 96 -189 66 -62 114 -87 218 -112 45 -11 85 -25 90
-32 4 -7 8 -41 8 -75 0 -53 -3 -64 -22 -77 -20 -14 -111 -16 -785 -16 -750 0
-763 0 -783 20 -15 15 -20 33 -20 78 0 72 12 85 95 101 83 16 175 61 225 111
52 52 103 156 98 202 l-3 33 -710 5 c-600 4 -716 7 -747 20 -62 25 -128 88
-157 149 l-26 56 -3 1305 c-2 910 1 1321 9 1357 21 102 105 192 206 219 39 10
393 12 1838 11 1539 -2 1796 -4 1830 -17z"/>
<path d="M1132 4210 l-22 -21 0 -1054 c0 -1042 0 -1055 20 -1075 20 -20 33
-20 1759 -20 l1740 0 15 22 c14 20 16 139 16 1075 0 1040 0 1053 -20 1073 -20
20 -33 20 -1753 20 -1730 0 -1733 0 -1755 -20z m2829 -281 c19 -19 20 -29 17
-255 -3 -220 -4 -237 -22 -250 -17 -12 -179 -14 -1070 -14 -578 0 -1056 4
-1062 8 -29 19 -34 55 -34 262 0 207 5 243 34 262 6 4 485 8 1064 8 1047 0
1052 0 1073 -21z m-1247 -670 c13 -6 27 -21 30 -33 3 -11 6 -211 6 -444 l0
-423 -25 -24 -24 -25 -421 0 c-454 0 -470 2 -484 52 -3 13 -6 211 -6 441 l0
418 25 24 24 25 425 0 c293 0 433 -3 450 -11z m1254 -1 c7 -7 12 -33 12 -60 0
-37 -4 -50 -19 -58 -21 -11 -1027 -15 -1055 -4 -12 5 -16 20 -16 63 0 32 3 61
7 64 3 4 243 7 533 7 396 0 529 -3 538 -12z m0 -270 c17 -17 15 -103 -2 -117
-9 -8 -160 -10 -542 -9 l-529 3 -3 59 c-2 41 1 62 10 67 22 14 1052 11 1066
-3z m10 -312 c2 -22 1 -50 -3 -63 l-5 -23 -538 2 -537 3 -3 49 c-2 27 -1 55 2
62 5 12 92 14 543 12 l538 -3 3 -39z m-10 -238 c18 -18 15 -94 -4 -112 -14
-14 -76 -16 -533 -16 -389 0 -520 3 -529 12 -13 13 -17 110 -5 121 3 4 243 7
533 7 396 0 529 -3 538 -12z"/>
<path d="M2830 1839 c-104 -41 -128 -175 -45 -248 41 -36 72 -45 125 -38 74
10 124 70 124 149 0 103 -108 175 -204 137z"/>
</g>
</svg>
